# xmcd
#
# Track frame offsets: 
#        150
#        11574
#        23725
#        40617
#        52074
#        64663
#        75685
#        86588
#        98913
#        108387
#        121114
#        135907
#        151517
#        162239
#        171390
#        185897
#        197530
#        208687
#        223623
#        239598
#        253286
#        264549
#        281823
#        295096
#        306931
#
# Disc length: 4256 seconds
#
# Revision: 2
# Processed by: cddbd v1.5.2PL0 Copyright (c) Steve Scherf et al.
# Submitted via: ExactAudioCopyFreeDBPlugin 1.0
#
DISCID=65109e19
DTITLE=Best Country - Country Album (3 LP´s )
DYEAR=1974
DGENRE=Country
TTITLE0=The Dark Ridge Boys - Elvira
TTITLE1=Don Williams - Some Broken Hearts Never Mend
TTITLE2=Billie Jo Spears - Blanket On The Ground
TTITLE3=Johnny Cash - Ring Of Fire
TTITLE4=Lynn Anderson - Rose Garden
TTITLE5=Donna Fargo - The Happiest Girl In The Whole USA
TTITLE6=Billie Crash Craddock - Rub It On
TTITLE7=Bobbie Bare - Detroit City
TTITLE8=Red Steagall - Lone Star Beer And Bob Will Music
TTITLE9=Barbara Mandrell - Midnight Angel
TTITLE10=Dolly Parton - Apple Jack
TTITLE11=Bill Anderson - Nashville Mirrors
TTITLE12=Roy Headis - Angel With A Broken Wing
TTITLE13=Burlives - Little Bitty Tear
TTITLE14=Jeanne Prutt - Satin Sheets
TTITLE15=Conway Twitty and Loretta Lynn - After The Fire Is Gone
TTITLE16=Charlie Rich - The Most Beautiful Girl
TTITLE17=John Conlee - As Long As I´m Rocking Rocking With You
TTITLE18=Reba McEntire - Only In My Mind
TTITLE19=Glen Campbell - The Hand That RocksThe Cradle
TTITLE20=Freddy Fender - Before The Night Teardrop Falls
TTITLE21=Naci Griffith - Lone Star State Of Mind
TTITLE22=Nicolette Larsen - Only Love Will Make It Right
TTITLE23=Tammy Wynette - Stand By Your Man
TTITLE24=Tommy Overstreet - Send Me No Roses
EXTD=YEAR: 1974
EXTT0=
EXTT1=
EXTT2=
EXTT3=
EXTT4=
EXTT5=
EXTT6=
EXTT7=
EXTT8=
EXTT9=
EXTT10=
EXTT11=
EXTT12=
EXTT13=
EXTT14=
EXTT15=
EXTT16=
EXTT17=
EXTT18=
EXTT19=
EXTT20=
EXTT21=
EXTT22=
EXTT23=
EXTT24=
PLAYORDER=
